<?xml version="1.0" encoding="UTF-8" standalone="no"?>
<!DOCTYPE svg PUBLIC "-//W3C//DTD SVG 1.1//EN"
 "http://www.w3.org/Graphics/SVG/1.1/DTD/svg11.dtd">
<!-- Generated by graphviz version 2.26.3 (20100126.1600)
 -->
<!-- Title: Finite_Automata_Graph Pages: 1 -->
<svg width="119pt" height="1236pt"
 viewBox="0.00 0.00 118.64 1236.00" xmlns="http://www.w3.org/2000/svg" xmlns:xlink="http://www.w3.org/1999/xlink">
<g id="graph1" class="graph" transform="scale(1 1) rotate(0) translate(4 1232)">
<title>Finite_Automata_Graph</title>
<polygon fill="white" stroke="white" points="-4,5 -4,-1232 115.642,-1232 115.642,5 -4,5"/>
<!-- 0 -->
<g id="node1" class="node"><title>0</title>
<ellipse fill="none" stroke="#000000" cx="66.6419" cy="-1210" rx="18" ry="18"/>
<text text-anchor="middle" x="66.6419" y="-1205.4" font-family="Times Roman,serif" font-size="14.00">0</text>
</g>
<!-- 1 -->
<g id="node2" class="node"><title>1</title>
<ellipse fill="none" stroke="#000000" cx="37.6419" cy="-1122" rx="18" ry="18"/>
<text text-anchor="middle" x="37.6419" y="-1117.4" font-family="Times Roman,serif" font-size="14.00">1</text>
</g>
<!-- 0&#45;&gt;1 -->
<g id="edge2" class="edge"><title>0&#45;&gt;1</title>
<path fill="none" stroke="black" d="M60.9124,-1192.61C56.8213,-1180.2 51.2381,-1163.26 46.5661,-1149.08"/>
<polygon fill="black" stroke="black" points="49.8136,-1147.75 43.3595,-1139.35 43.1653,-1149.94 49.8136,-1147.75"/>
<text text-anchor="middle" x="58.6419" y="-1161.4" font-family="Times Roman,serif" font-size="14.00">ε</text>
</g>
<!-- 3 -->
<g id="node4" class="node"><title>3</title>
<ellipse fill="none" stroke="#000000" cx="66.6419" cy="-946" rx="18" ry="18"/>
<text text-anchor="middle" x="66.6419" y="-941.4" font-family="Times Roman,serif" font-size="14.00">3</text>
</g>
<!-- 0&#45;&gt;3 -->
<g id="edge4" class="edge"><title>0&#45;&gt;3</title>
<path fill="none" stroke="black" d="M66.6419,-1191.85C66.6419,-1146.73 66.6419,-1029.19 66.6419,-974.611"/>
<polygon fill="black" stroke="black" points="70.142,-974.273 66.6419,-964.273 63.142,-974.273 70.142,-974.273"/>
<text text-anchor="middle" x="70.6419" y="-1073.4" font-family="Times Roman,serif" font-size="14.00">ε</text>
</g>
<!-- 2 -->
<g id="node3" class="node"><title>2</title>
<ellipse fill="none" stroke="#000000" cx="37.6419" cy="-1034" rx="18" ry="18"/>
<text text-anchor="middle" x="37.6419" y="-1029.4" font-family="Times Roman,serif" font-size="14.00">2</text>
</g>
<!-- 1&#45;&gt;2 -->
<g id="edge6" class="edge"><title>1&#45;&gt;2</title>
<path fill="none" stroke="black" d="M25.1688,-1108.29C17.3822,-1098.03 9.55045,-1083.51 13.6419,-1070 15.0894,-1065.22 17.4044,-1060.49 20.0385,-1056.12"/>
<polygon fill="black" stroke="black" points="23.0168,-1057.96 25.7178,-1047.71 17.2176,-1054.04 23.0168,-1057.96"/>
<text text-anchor="middle" x="18.6419" y="-1073.4" font-family="Times Roman,serif" font-size="14.00">d</text>
</g>
<!-- 2&#45;&gt;1 -->
<g id="edge8" class="edge"><title>2&#45;&gt;1</title>
<path fill="none" stroke="black" d="M37.6419,-1052.21C37.6419,-1064.12 37.6419,-1079.93 37.6419,-1093.49"/>
<polygon fill="black" stroke="black" points="34.142,-1093.77 37.6419,-1103.77 41.142,-1093.77 34.142,-1093.77"/>
<text text-anchor="middle" x="41.6419" y="-1073.4" font-family="Times Roman,serif" font-size="14.00">ε</text>
</g>
<!-- 2&#45;&gt;3 -->
<g id="edge10" class="edge"><title>2&#45;&gt;3</title>
<path fill="none" stroke="black" d="M43.3714,-1016.61C47.4625,-1004.2 53.0457,-987.258 57.7177,-973.08"/>
<polygon fill="black" stroke="black" points="61.1185,-973.943 60.9243,-963.35 54.4702,-971.752 61.1185,-973.943"/>
<text text-anchor="middle" x="58.6419" y="-985.4" font-family="Times Roman,serif" font-size="14.00">ε</text>
</g>
<!-- 4 -->
<g id="node5" class="node"><title>4</title>
<ellipse fill="none" stroke="#000000" cx="66.6419" cy="-858" rx="18" ry="18"/>
<text text-anchor="middle" x="66.6419" y="-853.4" font-family="Times Roman,serif" font-size="14.00">4</text>
</g>
<!-- 3&#45;&gt;4 -->
<g id="edge12" class="edge"><title>3&#45;&gt;4</title>
<path fill="none" stroke="black" d="M66.6419,-927.766C66.6419,-915.849 66.6419,-900.038 66.6419,-886.482"/>
<polygon fill="black" stroke="black" points="70.142,-886.21 66.6419,-876.21 63.142,-886.21 70.142,-886.21"/>
<text text-anchor="middle" x="88.6419" y="-897.4" font-family="Times Roman,serif" font-size="14.00">/[.eE]/</text>
</g>
<!-- 5 -->
<g id="node6" class="node"><title>5</title>
<ellipse fill="none" stroke="#000000" cx="66.6419" cy="-770" rx="18" ry="18"/>
<text text-anchor="middle" x="66.6419" y="-765.4" font-family="Times Roman,serif" font-size="14.00">5</text>
</g>
<!-- 4&#45;&gt;5 -->
<g id="edge14" class="edge"><title>4&#45;&gt;5</title>
<path fill="none" stroke="black" d="M59.3193,-841.48C57.0218,-835.471 54.7875,-828.546 53.6419,-822 52.1754,-813.621 53.4136,-804.597 55.6118,-796.455"/>
<polygon fill="black" stroke="black" points="59.0102,-797.323 58.7785,-786.731 52.3541,-795.156 59.0102,-797.323"/>
<text text-anchor="middle" x="57.6419" y="-809.4" font-family="Times Roman,serif" font-size="14.00">ε</text>
</g>
<!-- 4&#45;&gt;5 -->
<g id="edge16" class="edge"><title>4&#45;&gt;5</title>
<path fill="none" stroke="black" d="M66.6419,-839.766C66.6419,-827.849 66.6419,-812.038 66.6419,-798.482"/>
<polygon fill="black" stroke="black" points="70.142,-798.21 66.6419,-788.21 63.142,-798.21 70.142,-798.21"/>
<text text-anchor="middle" x="86.1419" y="-809.4" font-family="Times Roman,serif" font-size="14.00">/[+&#45;]/</text>
</g>
<!-- 6 -->
<g id="node7" class="node"><title>6</title>
<ellipse fill="none" stroke="#000000" cx="32.6419" cy="-682" rx="18" ry="18"/>
<text text-anchor="middle" x="32.6419" y="-677.4" font-family="Times Roman,serif" font-size="14.00">6</text>
</g>
<!-- 5&#45;&gt;6 -->
<g id="edge18" class="edge"><title>5&#45;&gt;6</title>
<path fill="none" stroke="black" d="M60.0864,-753.033C55.1946,-740.372 48.4191,-722.835 42.8243,-708.354"/>
<polygon fill="black" stroke="black" points="46.0462,-706.982 39.1773,-698.915 39.5166,-709.505 46.0462,-706.982"/>
<text text-anchor="middle" x="56.6419" y="-721.4" font-family="Times Roman,serif" font-size="14.00">ε</text>
</g>
<!-- 8 -->
<g id="node9" class="node"><title>8</title>
<ellipse fill="none" stroke="#000000" cx="61.6419" cy="-506" rx="18" ry="18"/>
<text text-anchor="middle" x="61.6419" y="-501.4" font-family="Times Roman,serif" font-size="14.00">8</text>
</g>
<!-- 5&#45;&gt;8 -->
<g id="edge20" class="edge"><title>5&#45;&gt;8</title>
<path fill="none" stroke="black" d="M66.2982,-751.854C65.4437,-706.734 63.2174,-589.187 62.1838,-534.611"/>
<polygon fill="black" stroke="black" points="65.6768,-534.205 61.988,-524.273 58.6781,-534.337 65.6768,-534.205"/>
<text text-anchor="middle" x="67.6419" y="-633.4" font-family="Times Roman,serif" font-size="14.00">ε</text>
</g>
<!-- 7 -->
<g id="node8" class="node"><title>7</title>
<ellipse fill="none" stroke="#000000" cx="32.6419" cy="-594" rx="18" ry="18"/>
<text text-anchor="middle" x="32.6419" y="-589.4" font-family="Times Roman,serif" font-size="14.00">7</text>
</g>
<!-- 6&#45;&gt;7 -->
<g id="edge22" class="edge"><title>6&#45;&gt;7</title>
<path fill="none" stroke="black" d="M20.7178,-668.286C15.9783,-661.949 11.0798,-654.052 8.6419,-646 5.57331,-635.865 9.21154,-625.163 14.5074,-616.12"/>
<polygon fill="black" stroke="black" points="17.4866,-617.962 20.1688,-607.712 11.6802,-614.052 17.4866,-617.962"/>
<text text-anchor="middle" x="13.6419" y="-633.4" font-family="Times Roman,serif" font-size="14.00">d</text>
</g>
<!-- 7&#45;&gt;6 -->
<g id="edge24" class="edge"><title>7&#45;&gt;6</title>
<path fill="none" stroke="black" d="M32.6419,-612.21C32.6419,-624.122 32.6419,-639.932 32.6419,-653.492"/>
<polygon fill="black" stroke="black" points="29.142,-653.766 32.6419,-663.766 36.142,-653.766 29.142,-653.766"/>
<text text-anchor="middle" x="36.6419" y="-633.4" font-family="Times Roman,serif" font-size="14.00">ε</text>
</g>
<!-- 7&#45;&gt;8 -->
<g id="edge26" class="edge"><title>7&#45;&gt;8</title>
<path fill="none" stroke="black" d="M38.3714,-576.614C42.4625,-564.2 48.0457,-547.258 52.7177,-533.08"/>
<polygon fill="black" stroke="black" points="56.1185,-533.943 55.9243,-523.35 49.4702,-531.752 56.1185,-533.943"/>
<text text-anchor="middle" x="53.6419" y="-545.4" font-family="Times Roman,serif" font-size="14.00">ε</text>
</g>
<!-- 9 -->
<g id="node10" class="node"><title>9</title>
<ellipse fill="none" stroke="#000000" cx="61.6419" cy="-418" rx="18" ry="18"/>
<text text-anchor="middle" x="61.6419" y="-413.4" font-family="Times Roman,serif" font-size="14.00">9</text>
</g>
<!-- 8&#45;&gt;9 -->
<g id="edge28" class="edge"><title>8&#45;&gt;9</title>
<path fill="none" stroke="black" d="M54.3193,-489.48C52.0218,-483.471 49.7875,-476.546 48.6419,-470 47.1754,-461.621 48.4136,-452.597 50.6118,-444.455"/>
<polygon fill="black" stroke="black" points="54.0102,-445.323 53.7785,-434.731 47.3541,-443.156 54.0102,-445.323"/>
<text text-anchor="middle" x="52.6419" y="-457.4" font-family="Times Roman,serif" font-size="14.00">ε</text>
</g>
<!-- 8&#45;&gt;9 -->
<g id="edge30" class="edge"><title>8&#45;&gt;9</title>
<path fill="none" stroke="black" d="M61.6419,-487.766C61.6419,-475.849 61.6419,-460.038 61.6419,-446.482"/>
<polygon fill="black" stroke="black" points="65.142,-446.21 61.6419,-436.21 58.142,-446.21 65.142,-446.21"/>
<text text-anchor="middle" x="81.6419" y="-457.4" font-family="Times Roman,serif" font-size="14.00">/[eE]/</text>
</g>
<!-- 10 -->
<g id="node11" class="node"><title>10</title>
<ellipse fill="none" stroke="#000000" cx="61.6419" cy="-325" rx="22.8079" ry="22.8079"/>
<text text-anchor="middle" x="61.6419" y="-320.4" font-family="Times Roman,serif" font-size="14.00">10</text>
</g>
<!-- 9&#45;&gt;10 -->
<g id="edge32" class="edge"><title>9&#45;&gt;10</title>
<path fill="none" stroke="black" d="M54.3193,-401.48C52.0218,-395.471 49.7875,-388.546 48.6419,-382 47.1615,-373.542 48.0793,-364.449 49.972,-356.064"/>
<polygon fill="black" stroke="black" points="53.386,-356.849 52.6684,-346.279 46.6375,-354.99 53.386,-356.849"/>
<text text-anchor="middle" x="52.6419" y="-369.4" font-family="Times Roman,serif" font-size="14.00">ε</text>
</g>
<!-- 9&#45;&gt;10 -->
<g id="edge34" class="edge"><title>9&#45;&gt;10</title>
<path fill="none" stroke="black" d="M61.6419,-399.626C61.6419,-387.899 61.6419,-372.35 61.6419,-358.48"/>
<polygon fill="black" stroke="black" points="65.142,-358.293 61.6419,-348.293 58.142,-358.293 65.142,-358.293"/>
<text text-anchor="middle" x="81.1419" y="-369.4" font-family="Times Roman,serif" font-size="14.00">/[+&#45;]/</text>
</g>
<!-- 11 -->
<g id="node12" class="node"><title>11</title>
<ellipse fill="none" stroke="#000000" cx="23.6419" cy="-227" rx="22.8079" ry="22.8079"/>
<text text-anchor="middle" x="23.6419" y="-222.4" font-family="Times Roman,serif" font-size="14.00">11</text>
</g>
<!-- 10&#45;&gt;11 -->
<g id="edge36" class="edge"><title>10&#45;&gt;11</title>
<path fill="none" stroke="black" d="M53.2085,-303.251C48.092,-290.055 41.4765,-272.994 35.8009,-258.357"/>
<polygon fill="black" stroke="black" points="38.9304,-256.747 32.0518,-248.689 32.4038,-259.278 38.9304,-256.747"/>
<text text-anchor="middle" x="48.6419" y="-271.4" font-family="Times Roman,serif" font-size="14.00">ε</text>
</g>
<!-- 13 -->
<g id="node14" class="node"><title>13</title>
<ellipse fill="none" stroke="#000000" cx="55.6419" cy="-27" rx="22.8079" ry="22.8079"/>
<ellipse fill="none" stroke="#000000" cx="55.6419" cy="-27" rx="26.8079" ry="26.8079"/>
<text text-anchor="middle" x="55.6419" y="-22.4" font-family="Times Roman,serif" font-size="14.00">13</text>
</g>
<!-- 10&#45;&gt;13 -->
<g id="edge38" class="edge"><title>10&#45;&gt;13</title>
<path fill="none" stroke="black" d="M61.1711,-301.616C60.1343,-250.124 57.6468,-126.575 56.3923,-64.2678"/>
<polygon fill="black" stroke="black" points="59.8881,-64.0224 56.1874,-54.0949 52.8895,-64.1634 59.8881,-64.0224"/>
<text text-anchor="middle" x="62.6419" y="-173.4" font-family="Times Roman,serif" font-size="14.00">ε</text>
</g>
<!-- 12 -->
<g id="node13" class="node"><title>12</title>
<ellipse fill="none" stroke="#000000" cx="23.6419" cy="-129" rx="22.8079" ry="22.8079"/>
<text text-anchor="middle" x="23.6419" y="-124.4" font-family="Times Roman,serif" font-size="14.00">12</text>
</g>
<!-- 11&#45;&gt;12 -->
<g id="edge40" class="edge"><title>11&#45;&gt;12</title>
<path fill="none" stroke="black" d="M10.0115,-208.118C3.74685,-197.195 -1.6419,-183.065 1.6419,-170 2.70522,-165.769 4.29884,-161.499 6.15172,-157.395"/>
<polygon fill="black" stroke="black" points="9.40719,-158.714 10.8181,-148.214 3.16695,-155.542 9.40719,-158.714"/>
<text text-anchor="middle" x="6.6419" y="-173.4" font-family="Times Roman,serif" font-size="14.00">d</text>
</g>
<!-- 12&#45;&gt;11 -->
<g id="edge42" class="edge"><title>12&#45;&gt;11</title>
<path fill="none" stroke="black" d="M23.6419,-152.058C23.6419,-164.479 23.6419,-180.025 23.6419,-193.733"/>
<polygon fill="black" stroke="black" points="20.142,-193.775 23.6419,-203.775 27.142,-193.775 20.142,-193.775"/>
<text text-anchor="middle" x="27.6419" y="-173.4" font-family="Times Roman,serif" font-size="14.00">ε</text>
</g>
<!-- 12&#45;&gt;13 -->
<g id="edge44" class="edge"><title>12&#45;&gt;13</title>
<path fill="none" stroke="black" d="M30.5854,-106.868C34.6179,-94.0139 39.7948,-77.5126 44.3951,-62.8492"/>
<polygon fill="black" stroke="black" points="47.8127,-63.6478 47.4667,-53.0586 41.1337,-61.5524 47.8127,-63.6478"/>
<text text-anchor="middle" x="43.6419" y="-75.4" font-family="Times Roman,serif" font-size="14.00">ε</text>
</g>
</g>
</svg>
