<?xml version="1.0" encoding="UTF-8" standalone="no"?>
<!DOCTYPE svg PUBLIC "-//W3C//DTD SVG 1.1//EN"
 "http://www.w3.org/Graphics/SVG/1.1/DTD/svg11.dtd">
<!-- Generated by graphviz version 2.26.3 (20100126.1600)
 -->
<!-- Title: Finite_Automata_Graph Pages: 1 -->
<svg width="261pt" height="1728pt"
 viewBox="0.00 0.00 260.64 1728.00" xmlns="http://www.w3.org/2000/svg" xmlns:xlink="http://www.w3.org/1999/xlink">
<g id="graph1" class="graph" transform="scale(1 1) rotate(0) translate(4 1724)">
<title>Finite_Automata_Graph</title>
<polygon fill="white" stroke="white" points="-4,5 -4,-1724 257.642,-1724 257.642,5 -4,5"/>
<!-- 0 -->
<g id="node1" class="node"><title>0</title>
<ellipse fill="none" stroke="#000000" cx="165.642" cy="-1702" rx="18" ry="18"/>
<text text-anchor="middle" x="165.642" y="-1697.4" font-family="Times Roman,serif" font-size="14.00">0</text>
</g>
<!-- 1 -->
<g id="node2" class="node"><title>1</title>
<ellipse fill="none" stroke="#000000" cx="133.642" cy="-1614" rx="18" ry="18"/>
<text text-anchor="middle" x="133.642" y="-1609.4" font-family="Times Roman,serif" font-size="14.00">1</text>
</g>
<!-- 0&#45;&gt;1 -->
<g id="edge2" class="edge"><title>0&#45;&gt;1</title>
<path fill="none" stroke="black" d="M159.472,-1685.03C154.897,-1672.45 148.573,-1655.06 143.327,-1640.63"/>
<polygon fill="black" stroke="black" points="146.609,-1639.42 139.902,-1631.22 140.03,-1641.81 146.609,-1639.42"/>
<text text-anchor="middle" x="155.642" y="-1653.4" font-family="Times Roman,serif" font-size="14.00">ε</text>
</g>
<!-- 3 -->
<g id="node4" class="node"><title>3</title>
<ellipse fill="none" stroke="#000000" cx="191.642" cy="-1614" rx="18" ry="18"/>
<text text-anchor="middle" x="191.642" y="-1609.4" font-family="Times Roman,serif" font-size="14.00">3</text>
</g>
<!-- 0&#45;&gt;3 -->
<g id="edge4" class="edge"><title>0&#45;&gt;3</title>
<path fill="none" stroke="black" d="M170.779,-1684.61C174.447,-1672.2 179.452,-1655.26 183.641,-1641.08"/>
<polygon fill="black" stroke="black" points="187.039,-1641.93 186.516,-1631.35 180.326,-1639.95 187.039,-1641.93"/>
<text text-anchor="middle" x="184.642" y="-1653.4" font-family="Times Roman,serif" font-size="14.00">ε</text>
</g>
<!-- 6 -->
<g id="node7" class="node"><title>6</title>
<ellipse fill="none" stroke="#000000" cx="117.642" cy="-1521" rx="18" ry="18"/>
<text text-anchor="middle" x="117.642" y="-1516.4" font-family="Times Roman,serif" font-size="14.00">6</text>
</g>
<!-- 1&#45;&gt;6 -->
<g id="edge6" class="edge"><title>1&#45;&gt;6</title>
<path fill="none" stroke="black" d="M120.192,-1601.68C114.199,-1595.28 107.792,-1586.93 104.642,-1578 101.134,-1568.05 102.616,-1556.79 105.614,-1546.92"/>
<polygon fill="black" stroke="black" points="109.003,-1547.84 109.142,-1537.25 102.427,-1545.44 109.003,-1547.84"/>
<text text-anchor="middle" x="108.642" y="-1565.4" font-family="Times Roman,serif" font-size="14.00">ε</text>
</g>
<!-- 1&#45;&gt;6 -->
<g id="edge8" class="edge"><title>1&#45;&gt;6</title>
<path fill="none" stroke="black" d="M130.557,-1596.07C128.255,-1582.69 125.066,-1564.16 122.434,-1548.85"/>
<polygon fill="black" stroke="black" points="125.862,-1548.14 120.717,-1538.88 118.964,-1549.32 125.862,-1548.14"/>
<text text-anchor="middle" x="146.142" y="-1565.4" font-family="Times Roman,serif" font-size="14.00">/[+&#45;]/</text>
</g>
<!-- 2 -->
<g id="node3" class="node"><title>2</title>
<ellipse fill="none" stroke="#000000" cx="141.642" cy="-114" rx="18" ry="18"/>
<text text-anchor="middle" x="141.642" y="-109.4" font-family="Times Roman,serif" font-size="14.00">2</text>
</g>
<!-- 5 -->
<g id="node6" class="node"><title>5</title>
<ellipse fill="none" stroke="#000000" cx="179.642" cy="-22" rx="18" ry="18"/>
<ellipse fill="none" stroke="#000000" cx="179.642" cy="-22" rx="22" ry="22"/>
<text text-anchor="middle" x="179.642" y="-17.4" font-family="Times Roman,serif" font-size="14.00">5</text>
</g>
<!-- 2&#45;&gt;5 -->
<g id="edge10" class="edge"><title>2&#45;&gt;5</title>
<path fill="none" stroke="black" d="M148.612,-97.1258C153.814,-84.5301 161.061,-66.9849 167.243,-52.0177"/>
<polygon fill="black" stroke="black" points="170.537,-53.2111 171.12,-42.6323 164.067,-50.5387 170.537,-53.2111"/>
<text text-anchor="middle" x="166.642" y="-65.4" font-family="Times Roman,serif" font-size="14.00">ε</text>
</g>
<!-- 26 -->
<g id="node27" class="node"><title>26</title>
<ellipse fill="none" stroke="#000000" cx="195.642" cy="-1521" rx="22.8079" ry="22.8079"/>
<text text-anchor="middle" x="195.642" y="-1516.4" font-family="Times Roman,serif" font-size="14.00">26</text>
</g>
<!-- 3&#45;&gt;26 -->
<g id="edge12" class="edge"><title>3&#45;&gt;26</title>
<path fill="none" stroke="black" d="M192.432,-1595.63C192.937,-1583.9 193.605,-1568.35 194.202,-1554.48"/>
<polygon fill="black" stroke="black" points="197.707,-1554.43 194.64,-1544.29 190.713,-1554.13 197.707,-1554.43"/>
<text text-anchor="middle" x="197.642" y="-1565.4" font-family="Times Roman,serif" font-size="14.00">ε</text>
</g>
<!-- 4 -->
<g id="node5" class="node"><title>4</title>
<ellipse fill="none" stroke="#000000" cx="200.642" cy="-658" rx="18" ry="18"/>
<text text-anchor="middle" x="200.642" y="-653.4" font-family="Times Roman,serif" font-size="14.00">4</text>
</g>
<!-- 4&#45;&gt;5 -->
<g id="edge14" class="edge"><title>4&#45;&gt;5</title>
<path fill="none" stroke="black" d="M200.642,-639.655C200.642,-618.168 200.642,-581.5 200.642,-550 200.642,-550 200.642,-550 200.642,-114 200.642,-93.1833 195.469,-70.3665 190.257,-52.6633"/>
<polygon fill="black" stroke="black" points="193.529,-51.3983 187.223,-42.8846 186.844,-53.4726 193.529,-51.3983"/>
<text text-anchor="middle" x="204.642" y="-349.4" font-family="Times Roman,serif" font-size="14.00">ε</text>
</g>
<!-- 7 -->
<g id="node8" class="node"><title>7</title>
<ellipse fill="none" stroke="#000000" cx="73.6419" cy="-1423" rx="18" ry="18"/>
<text text-anchor="middle" x="73.6419" y="-1418.4" font-family="Times Roman,serif" font-size="14.00">7</text>
</g>
<!-- 6&#45;&gt;7 -->
<g id="edge16" class="edge"><title>6&#45;&gt;7</title>
<path fill="none" stroke="black" d="M110.178,-1504.38C103.351,-1489.17 93.1441,-1466.44 85.2524,-1448.86"/>
<polygon fill="black" stroke="black" points="88.4314,-1447.4 81.1425,-1439.71 82.0455,-1450.26 88.4314,-1447.4"/>
<text text-anchor="middle" x="102.642" y="-1467.4" font-family="Times Roman,serif" font-size="14.00">ε</text>
</g>
<!-- 9 -->
<g id="node10" class="node"><title>9</title>
<ellipse fill="none" stroke="#000000" cx="127.642" cy="-1423" rx="18" ry="18"/>
<text text-anchor="middle" x="127.642" y="-1418.4" font-family="Times Roman,serif" font-size="14.00">9</text>
</g>
<!-- 6&#45;&gt;9 -->
<g id="edge18" class="edge"><title>6&#45;&gt;9</title>
<path fill="none" stroke="black" d="M119.476,-1503.03C120.947,-1488.61 123.039,-1468.11 124.737,-1451.47"/>
<polygon fill="black" stroke="black" points="128.252,-1451.5 125.786,-1441.19 121.288,-1450.79 128.252,-1451.5"/>
<text text-anchor="middle" x="126.642" y="-1467.4" font-family="Times Roman,serif" font-size="14.00">ε</text>
</g>
<!-- 12 -->
<g id="node13" class="node"><title>12</title>
<ellipse fill="none" stroke="#000000" cx="23.6419" cy="-1325" rx="22.8079" ry="22.8079"/>
<text text-anchor="middle" x="23.6419" y="-1320.4" font-family="Times Roman,serif" font-size="14.00">12</text>
</g>
<!-- 7&#45;&gt;12 -->
<g id="edge20" class="edge"><title>7&#45;&gt;12</title>
<path fill="none" stroke="black" d="M65.2523,-1406.65C61.4049,-1399.14 56.7871,-1390.12 52.6419,-1382 48.1191,-1373.14 43.21,-1363.5 38.739,-1354.71"/>
<polygon fill="black" stroke="black" points="41.7511,-1352.91 34.0984,-1345.59 35.5115,-1356.09 41.7511,-1352.91"/>
<text text-anchor="middle" x="56.6419" y="-1369.4" font-family="Times Roman,serif" font-size="14.00">ε</text>
</g>
<!-- 14 -->
<g id="node15" class="node"><title>14</title>
<ellipse fill="none" stroke="#000000" cx="59.6419" cy="-1129" rx="22.8079" ry="22.8079"/>
<text text-anchor="middle" x="59.6419" y="-1124.4" font-family="Times Roman,serif" font-size="14.00">14</text>
</g>
<!-- 7&#45;&gt;14 -->
<g id="edge22" class="edge"><title>7&#45;&gt;14</title>
<path fill="none" stroke="black" d="M72.7661,-1404.61C70.4573,-1356.12 64.1795,-1224.29 61.2225,-1162.19"/>
<polygon fill="black" stroke="black" points="64.7159,-1161.97 60.7441,-1152.15 57.7238,-1162.3 64.7159,-1161.97"/>
<text text-anchor="middle" x="71.6419" y="-1271.4" font-family="Times Roman,serif" font-size="14.00">ε</text>
</g>
<!-- 8 -->
<g id="node9" class="node"><title>8</title>
<ellipse fill="none" stroke="#000000" cx="87.6419" cy="-712" rx="18" ry="18"/>
<text text-anchor="middle" x="87.6419" y="-707.4" font-family="Times Roman,serif" font-size="14.00">8</text>
</g>
<!-- 11 -->
<g id="node12" class="node"><title>11</title>
<ellipse fill="none" stroke="#000000" cx="95.6419" cy="-599" rx="22.8079" ry="22.8079"/>
<text text-anchor="middle" x="95.6419" y="-594.4" font-family="Times Roman,serif" font-size="14.00">11</text>
</g>
<!-- 8&#45;&gt;11 -->
<g id="edge24" class="edge"><title>8&#45;&gt;11</title>
<path fill="none" stroke="black" d="M88.9272,-693.845C90.1007,-677.269 91.8644,-652.357 93.2898,-632.223"/>
<polygon fill="black" stroke="black" points="96.7844,-632.422 93.9994,-622.2 89.8019,-631.928 96.7844,-632.422"/>
<text text-anchor="middle" x="96.6419" y="-653.4" font-family="Times Roman,serif" font-size="14.00">ε</text>
</g>
<!-- 18 -->
<g id="node19" class="node"><title>18</title>
<ellipse fill="none" stroke="#000000" cx="127.642" cy="-1325" rx="22.8079" ry="22.8079"/>
<text text-anchor="middle" x="127.642" y="-1320.4" font-family="Times Roman,serif" font-size="14.00">18</text>
</g>
<!-- 9&#45;&gt;18 -->
<g id="edge26" class="edge"><title>9&#45;&gt;18</title>
<path fill="none" stroke="black" d="M127.642,-1404.57C127.642,-1391.59 127.642,-1373.86 127.642,-1358.42"/>
<polygon fill="black" stroke="black" points="131.142,-1358.19 127.642,-1348.19 124.142,-1358.19 131.142,-1358.19"/>
<text text-anchor="middle" x="130.142" y="-1369.4" font-family="Times Roman,serif" font-size="14.00">.</text>
</g>
<!-- 10 -->
<g id="node11" class="node"><title>10</title>
<ellipse fill="none" stroke="#000000" cx="137.642" cy="-967" rx="22.8079" ry="22.8079"/>
<text text-anchor="middle" x="137.642" y="-962.4" font-family="Times Roman,serif" font-size="14.00">10</text>
</g>
<!-- 10&#45;&gt;11 -->
<g id="edge28" class="edge"><title>10&#45;&gt;11</title>
<path fill="none" stroke="black" d="M137.642,-943.627C137.642,-920.776 137.642,-884.997 137.642,-854 137.642,-854 137.642,-854 137.642,-712 137.642,-681.783 124.284,-649.709 112.634,-627.482"/>
<polygon fill="black" stroke="black" points="115.649,-625.699 107.79,-618.594 109.502,-629.049 115.649,-625.699"/>
<text text-anchor="middle" x="141.642" y="-800.4" font-family="Times Roman,serif" font-size="14.00">ε</text>
</g>
<!-- 11&#45;&gt;2 -->
<g id="edge54" class="edge"><title>11&#45;&gt;2</title>
<path fill="none" stroke="black" d="M90.875,-576.144C87.1648,-556.355 82.6419,-526.916 82.6419,-501 82.6419,-501 82.6419,-501 82.6419,-207 82.6419,-177.817 103.613,-150.375 120.55,-132.971"/>
<polygon fill="black" stroke="black" points="123.266,-135.21 127.958,-125.711 118.366,-130.21 123.266,-135.21"/>
<text text-anchor="middle" x="86.6419" y="-349.4" font-family="Times Roman,serif" font-size="14.00">ε</text>
</g>
<!-- 21 -->
<g id="node22" class="node"><title>21</title>
<ellipse fill="none" stroke="#000000" cx="133.642" cy="-501" rx="22.8079" ry="22.8079"/>
<text text-anchor="middle" x="133.642" y="-496.4" font-family="Times Roman,serif" font-size="14.00">21</text>
</g>
<!-- 11&#45;&gt;21 -->
<g id="edge56" class="edge"><title>11&#45;&gt;21</title>
<path fill="none" stroke="black" d="M104.075,-577.251C109.192,-564.055 115.807,-546.994 121.483,-532.357"/>
<polygon fill="black" stroke="black" points="124.88,-533.278 125.232,-522.689 118.353,-530.747 124.88,-533.278"/>
<text text-anchor="middle" x="137.642" y="-545.4" font-family="Times Roman,serif" font-size="14.00">/[eE]/</text>
</g>
<!-- 13 -->
<g id="node14" class="node"><title>13</title>
<ellipse fill="none" stroke="#000000" cx="23.6419" cy="-1227" rx="22.8079" ry="22.8079"/>
<text text-anchor="middle" x="23.6419" y="-1222.4" font-family="Times Roman,serif" font-size="14.00">13</text>
</g>
<!-- 12&#45;&gt;13 -->
<g id="edge30" class="edge"><title>12&#45;&gt;13</title>
<path fill="none" stroke="black" d="M10.0115,-1306.12C3.74685,-1295.2 -1.6419,-1281.06 1.6419,-1268 2.70522,-1263.77 4.29884,-1259.5 6.15172,-1255.39"/>
<polygon fill="black" stroke="black" points="9.40719,-1256.71 10.8181,-1246.21 3.16695,-1253.54 9.40719,-1256.71"/>
<text text-anchor="middle" x="6.6419" y="-1271.4" font-family="Times Roman,serif" font-size="14.00">d</text>
</g>
<!-- 13&#45;&gt;12 -->
<g id="edge32" class="edge"><title>13&#45;&gt;12</title>
<path fill="none" stroke="black" d="M23.6419,-1250.06C23.6419,-1262.48 23.6419,-1278.02 23.6419,-1291.73"/>
<polygon fill="black" stroke="black" points="20.142,-1291.78 23.6419,-1301.78 27.142,-1291.78 20.142,-1291.78"/>
<text text-anchor="middle" x="27.6419" y="-1271.4" font-family="Times Roman,serif" font-size="14.00">ε</text>
</g>
<!-- 13&#45;&gt;14 -->
<g id="edge34" class="edge"><title>13&#45;&gt;14</title>
<path fill="none" stroke="black" d="M31.6315,-1205.25C36.4787,-1192.06 42.746,-1174.99 48.1229,-1160.36"/>
<polygon fill="black" stroke="black" points="51.5118,-1161.28 51.6747,-1150.69 44.9411,-1158.87 51.5118,-1161.28"/>
<text text-anchor="middle" x="48.6419" y="-1173.4" font-family="Times Roman,serif" font-size="14.00">ε</text>
</g>
<!-- 15 -->
<g id="node16" class="node"><title>15</title>
<ellipse fill="none" stroke="#000000" cx="59.6419" cy="-1031" rx="22.8079" ry="22.8079"/>
<text text-anchor="middle" x="59.6419" y="-1026.4" font-family="Times Roman,serif" font-size="14.00">15</text>
</g>
<!-- 14&#45;&gt;15 -->
<g id="edge36" class="edge"><title>14&#45;&gt;15</title>
<path fill="none" stroke="black" d="M59.6419,-1105.78C59.6419,-1093.33 59.6419,-1077.77 59.6419,-1064.08"/>
<polygon fill="black" stroke="black" points="63.142,-1064.06 59.6419,-1054.06 56.142,-1064.06 63.142,-1064.06"/>
<text text-anchor="middle" x="62.1419" y="-1075.4" font-family="Times Roman,serif" font-size="14.00">.</text>
</g>
<!-- 16 -->
<g id="node17" class="node"><title>16</title>
<ellipse fill="none" stroke="#000000" cx="59.6419" cy="-903" rx="22.8079" ry="22.8079"/>
<text text-anchor="middle" x="59.6419" y="-898.4" font-family="Times Roman,serif" font-size="14.00">16</text>
</g>
<!-- 15&#45;&gt;16 -->
<g id="edge38" class="edge"><title>15&#45;&gt;16</title>
<path fill="none" stroke="black" d="M59.6419,-1007.82C59.6419,-987.794 59.6419,-958.616 59.6419,-936.126"/>
<polygon fill="black" stroke="black" points="63.142,-936.007 59.6419,-926.007 56.142,-936.007 63.142,-936.007"/>
<text text-anchor="middle" x="63.6419" y="-962.4" font-family="Times Roman,serif" font-size="14.00">ε</text>
</g>
<!-- 17 -->
<g id="node18" class="node"><title>17</title>
<ellipse fill="none" stroke="#000000" cx="78.6419" cy="-805" rx="22.8079" ry="22.8079"/>
<text text-anchor="middle" x="78.6419" y="-800.4" font-family="Times Roman,serif" font-size="14.00">17</text>
</g>
<!-- 16&#45;&gt;17 -->
<g id="edge40" class="edge"><title>16&#45;&gt;17</title>
<path fill="none" stroke="black" d="M53.4721,-880.749C51.4769,-870.078 50.4942,-857.208 53.6419,-846 54.9535,-841.33 56.9604,-836.664 59.2788,-832.243"/>
<polygon fill="black" stroke="black" points="62.3154,-833.983 64.3522,-823.586 56.2762,-830.444 62.3154,-833.983"/>
<text text-anchor="middle" x="58.6419" y="-849.4" font-family="Times Roman,serif" font-size="14.00">d</text>
</g>
<!-- 17&#45;&gt;8 -->
<g id="edge42" class="edge"><title>17&#45;&gt;8</title>
<path fill="none" stroke="black" d="M80.8666,-782.011C82.0906,-769.363 83.6194,-753.566 84.9148,-740.18"/>
<polygon fill="black" stroke="black" points="88.4138,-740.358 85.8934,-730.067 81.4464,-739.684 88.4138,-740.358"/>
<text text-anchor="middle" x="88.6419" y="-751.4" font-family="Times Roman,serif" font-size="14.00">ε</text>
</g>
<!-- 17&#45;&gt;16 -->
<g id="edge44" class="edge"><title>17&#45;&gt;16</title>
<path fill="none" stroke="black" d="M74.2591,-827.606C71.8172,-840.201 68.7325,-856.112 66.0269,-870.067"/>
<polygon fill="black" stroke="black" points="62.516,-869.787 64.0486,-880.271 69.3881,-871.12 62.516,-869.787"/>
<text text-anchor="middle" x="74.6419" y="-849.4" font-family="Times Roman,serif" font-size="14.00">ε</text>
</g>
<!-- 19 -->
<g id="node20" class="node"><title>19</title>
<ellipse fill="none" stroke="#000000" cx="127.642" cy="-1227" rx="22.8079" ry="22.8079"/>
<text text-anchor="middle" x="127.642" y="-1222.4" font-family="Times Roman,serif" font-size="14.00">19</text>
</g>
<!-- 18&#45;&gt;19 -->
<g id="edge46" class="edge"><title>18&#45;&gt;19</title>
<path fill="none" stroke="black" d="M127.642,-1301.78C127.642,-1289.33 127.642,-1273.77 127.642,-1260.08"/>
<polygon fill="black" stroke="black" points="131.142,-1260.06 127.642,-1250.06 124.142,-1260.06 131.142,-1260.06"/>
<text text-anchor="middle" x="131.642" y="-1271.4" font-family="Times Roman,serif" font-size="14.00">ε</text>
</g>
<!-- 20 -->
<g id="node21" class="node"><title>20</title>
<ellipse fill="none" stroke="#000000" cx="137.642" cy="-1129" rx="22.8079" ry="22.8079"/>
<text text-anchor="middle" x="137.642" y="-1124.4" font-family="Times Roman,serif" font-size="14.00">20</text>
</g>
<!-- 19&#45;&gt;20 -->
<g id="edge48" class="edge"><title>19&#45;&gt;20</title>
<path fill="none" stroke="black" d="M114.973,-1207.78C109.273,-1196.75 104.628,-1182.62 108.642,-1170 110.359,-1164.6 113.074,-1159.3 116.169,-1154.39"/>
<polygon fill="black" stroke="black" points="119.138,-1156.26 122.017,-1146.06 113.408,-1152.23 119.138,-1156.26"/>
<text text-anchor="middle" x="113.642" y="-1173.4" font-family="Times Roman,serif" font-size="14.00">d</text>
</g>
<!-- 20&#45;&gt;10 -->
<g id="edge52" class="edge"><title>20&#45;&gt;10</title>
<path fill="none" stroke="black" d="M137.642,-1105.79C137.642,-1078.12 137.642,-1031.68 137.642,-1000.22"/>
<polygon fill="black" stroke="black" points="141.142,-1000.17 137.642,-990.168 134.142,-1000.17 141.142,-1000.17"/>
<text text-anchor="middle" x="141.642" y="-1075.4" font-family="Times Roman,serif" font-size="14.00">ε</text>
</g>
<!-- 20&#45;&gt;19 -->
<g id="edge50" class="edge"><title>20&#45;&gt;19</title>
<path fill="none" stroke="black" d="M135.289,-1152.06C134.022,-1164.48 132.435,-1180.02 131.036,-1193.73"/>
<polygon fill="black" stroke="black" points="127.545,-1193.47 130.012,-1203.78 134.509,-1194.18 127.545,-1193.47"/>
<text text-anchor="middle" x="136.642" y="-1173.4" font-family="Times Roman,serif" font-size="14.00">ε</text>
</g>
<!-- 22 -->
<g id="node23" class="node"><title>22</title>
<ellipse fill="none" stroke="#000000" cx="145.642" cy="-403" rx="22.8079" ry="22.8079"/>
<text text-anchor="middle" x="145.642" y="-398.4" font-family="Times Roman,serif" font-size="14.00">22</text>
</g>
<!-- 21&#45;&gt;22 -->
<g id="edge58" class="edge"><title>21&#45;&gt;22</title>
<path fill="none" stroke="black" d="M122.267,-480.877C117.517,-469.931 113.88,-456.177 117.642,-444 119.223,-438.881 121.687,-433.831 124.512,-429.118"/>
<polygon fill="black" stroke="black" points="127.599,-430.798 130.252,-420.54 121.781,-426.905 127.599,-430.798"/>
<text text-anchor="middle" x="121.642" y="-447.4" font-family="Times Roman,serif" font-size="14.00">ε</text>
</g>
<!-- 21&#45;&gt;22 -->
<g id="edge60" class="edge"><title>21&#45;&gt;22</title>
<path fill="none" stroke="black" d="M136.486,-477.775C138.01,-465.327 139.914,-449.775 141.591,-436.083"/>
<polygon fill="black" stroke="black" points="145.077,-436.409 142.818,-426.058 138.129,-435.558 145.077,-436.409"/>
<text text-anchor="middle" x="159.142" y="-447.4" font-family="Times Roman,serif" font-size="14.00">/[+&#45;]/</text>
</g>
<!-- 23 -->
<g id="node24" class="node"><title>23</title>
<ellipse fill="none" stroke="#000000" cx="145.642" cy="-305" rx="22.8079" ry="22.8079"/>
<text text-anchor="middle" x="145.642" y="-300.4" font-family="Times Roman,serif" font-size="14.00">23</text>
</g>
<!-- 22&#45;&gt;23 -->
<g id="edge62" class="edge"><title>22&#45;&gt;23</title>
<path fill="none" stroke="black" d="M145.642,-379.775C145.642,-367.327 145.642,-351.775 145.642,-338.083"/>
<polygon fill="black" stroke="black" points="149.142,-338.058 145.642,-328.058 142.142,-338.058 149.142,-338.058"/>
<text text-anchor="middle" x="149.642" y="-349.4" font-family="Times Roman,serif" font-size="14.00">ε</text>
</g>
<!-- 24 -->
<g id="node25" class="node"><title>24</title>
<ellipse fill="none" stroke="#000000" cx="141.642" cy="-207" rx="22.8079" ry="22.8079"/>
<text text-anchor="middle" x="141.642" y="-202.4" font-family="Times Roman,serif" font-size="14.00">24</text>
</g>
<!-- 23&#45;&gt;24 -->
<g id="edge64" class="edge"><title>23&#45;&gt;24</title>
<path fill="none" stroke="black" d="M136.868,-283.64C134.719,-277.415 132.726,-270.53 131.642,-264 130.288,-255.846 130.837,-247.047 132.206,-238.859"/>
<polygon fill="black" stroke="black" points="135.665,-239.415 134.296,-228.909 128.815,-237.975 135.665,-239.415"/>
<text text-anchor="middle" x="136.642" y="-251.4" font-family="Times Roman,serif" font-size="14.00">d</text>
</g>
<!-- 24&#45;&gt;2 -->
<g id="edge66" class="edge"><title>24&#45;&gt;2</title>
<path fill="none" stroke="black" d="M141.642,-183.532C141.642,-171.089 141.642,-155.701 141.642,-142.568"/>
<polygon fill="black" stroke="black" points="145.142,-142.18 141.642,-132.18 138.142,-142.18 145.142,-142.18"/>
<text text-anchor="middle" x="145.642" y="-153.4" font-family="Times Roman,serif" font-size="14.00">ε</text>
</g>
<!-- 24&#45;&gt;23 -->
<g id="edge68" class="edge"><title>24&#45;&gt;23</title>
<path fill="none" stroke="black" d="M142.583,-230.058C143.09,-242.479 143.725,-258.025 144.284,-271.733"/>
<polygon fill="black" stroke="black" points="140.789,-271.926 144.694,-281.775 147.783,-271.641 140.789,-271.926"/>
<text text-anchor="middle" x="147.642" y="-251.4" font-family="Times Roman,serif" font-size="14.00">ε</text>
</g>
<!-- 25 -->
<g id="node26" class="node"><title>25</title>
<ellipse fill="none" stroke="#000000" cx="202.642" cy="-1325" rx="22.8079" ry="22.8079"/>
<text text-anchor="middle" x="202.642" y="-1320.4" font-family="Times Roman,serif" font-size="14.00">25</text>
</g>
<!-- 28 -->
<g id="node29" class="node"><title>28</title>
<ellipse fill="none" stroke="#000000" cx="202.642" cy="-1227" rx="22.8079" ry="22.8079"/>
<text text-anchor="middle" x="202.642" y="-1222.4" font-family="Times Roman,serif" font-size="14.00">28</text>
</g>
<!-- 25&#45;&gt;28 -->
<g id="edge70" class="edge"><title>25&#45;&gt;28</title>
<path fill="none" stroke="black" d="M202.642,-1301.78C202.642,-1289.33 202.642,-1273.77 202.642,-1260.08"/>
<polygon fill="black" stroke="black" points="206.142,-1260.06 202.642,-1250.06 199.142,-1260.06 206.142,-1260.06"/>
<text text-anchor="middle" x="206.642" y="-1271.4" font-family="Times Roman,serif" font-size="14.00">ε</text>
</g>
<!-- 27 -->
<g id="node28" class="node"><title>27</title>
<ellipse fill="none" stroke="#000000" cx="202.642" cy="-1423" rx="22.8079" ry="22.8079"/>
<text text-anchor="middle" x="202.642" y="-1418.4" font-family="Times Roman,serif" font-size="14.00">27</text>
</g>
<!-- 26&#45;&gt;27 -->
<g id="edge72" class="edge"><title>26&#45;&gt;27</title>
<path fill="none" stroke="black" d="M185.114,-1500.45C180.863,-1489.62 177.599,-1476.11 180.642,-1464 181.705,-1459.77 183.299,-1455.5 185.152,-1451.39"/>
<polygon fill="black" stroke="black" points="188.407,-1452.71 189.818,-1442.21 182.167,-1449.54 188.407,-1452.71"/>
<text text-anchor="middle" x="185.642" y="-1467.4" font-family="Times Roman,serif" font-size="14.00">d</text>
</g>
<!-- 27&#45;&gt;25 -->
<g id="edge74" class="edge"><title>27&#45;&gt;25</title>
<path fill="none" stroke="black" d="M202.642,-1399.78C202.642,-1387.33 202.642,-1371.77 202.642,-1358.08"/>
<polygon fill="black" stroke="black" points="206.142,-1358.06 202.642,-1348.06 199.142,-1358.06 206.142,-1358.06"/>
<text text-anchor="middle" x="206.642" y="-1369.4" font-family="Times Roman,serif" font-size="14.00">ε</text>
</g>
<!-- 27&#45;&gt;26 -->
<g id="edge76" class="edge"><title>27&#45;&gt;26</title>
<path fill="none" stroke="black" d="M200.995,-1446.06C200.108,-1458.48 198.997,-1474.02 198.018,-1487.73"/>
<polygon fill="black" stroke="black" points="194.522,-1487.55 197.301,-1497.78 201.504,-1488.05 194.522,-1487.55"/>
<text text-anchor="middle" x="202.642" y="-1467.4" font-family="Times Roman,serif" font-size="14.00">ε</text>
</g>
<!-- 29 -->
<g id="node30" class="node"><title>29</title>
<ellipse fill="none" stroke="#000000" cx="202.642" cy="-1129" rx="22.8079" ry="22.8079"/>
<text text-anchor="middle" x="202.642" y="-1124.4" font-family="Times Roman,serif" font-size="14.00">29</text>
</g>
<!-- 28&#45;&gt;29 -->
<g id="edge78" class="edge"><title>28&#45;&gt;29</title>
<path fill="none" stroke="black" d="M187.017,-1209.94C181.69,-1203.03 176.389,-1194.64 173.642,-1186 170.191,-1175.14 174.163,-1163.84 180.164,-1154.18"/>
<polygon fill="black" stroke="black" points="183.152,-1156.02 186.089,-1145.84 177.445,-1151.96 183.152,-1156.02"/>
<text text-anchor="middle" x="177.642" y="-1173.4" font-family="Times Roman,serif" font-size="14.00">ε</text>
</g>
<!-- 28&#45;&gt;29 -->
<g id="edge80" class="edge"><title>28&#45;&gt;29</title>
<path fill="none" stroke="black" d="M202.642,-1203.78C202.642,-1191.33 202.642,-1175.77 202.642,-1162.08"/>
<polygon fill="black" stroke="black" points="206.142,-1162.06 202.642,-1152.06 199.142,-1162.06 206.142,-1162.06"/>
<text text-anchor="middle" x="222.642" y="-1173.4" font-family="Times Roman,serif" font-size="14.00">/[eE]/</text>
</g>
<!-- 29&#45;&gt;28 -->
<g id="edge82" class="edge"><title>29&#45;&gt;28</title>
<path fill="none" stroke="black" d="M221.785,-1141.75C235.563,-1152.66 250.593,-1169.22 243.642,-1186 240.446,-1193.72 235.015,-1200.74 229.133,-1206.7"/>
<polygon fill="black" stroke="black" points="226.557,-1204.32 221.577,-1213.67 231.301,-1209.47 226.557,-1204.32"/>
<text text-anchor="middle" x="248.642" y="-1173.4" font-family="Times Roman,serif" font-size="14.00">ε</text>
</g>
<!-- 30 -->
<g id="node31" class="node"><title>30</title>
<ellipse fill="none" stroke="#000000" cx="202.642" cy="-1031" rx="22.8079" ry="22.8079"/>
<text text-anchor="middle" x="202.642" y="-1026.4" font-family="Times Roman,serif" font-size="14.00">30</text>
</g>
<!-- 29&#45;&gt;30 -->
<g id="edge84" class="edge"><title>29&#45;&gt;30</title>
<path fill="none" stroke="black" d="M202.642,-1105.78C202.642,-1093.33 202.642,-1077.77 202.642,-1064.08"/>
<polygon fill="black" stroke="black" points="206.142,-1064.06 202.642,-1054.06 199.142,-1064.06 206.142,-1064.06"/>
<text text-anchor="middle" x="206.642" y="-1075.4" font-family="Times Roman,serif" font-size="14.00">ε</text>
</g>
<!-- 31 -->
<g id="node32" class="node"><title>31</title>
<ellipse fill="none" stroke="#000000" cx="202.642" cy="-903" rx="22.8079" ry="22.8079"/>
<text text-anchor="middle" x="202.642" y="-898.4" font-family="Times Roman,serif" font-size="14.00">31</text>
</g>
<!-- 30&#45;&gt;31 -->
<g id="edge86" class="edge"><title>30&#45;&gt;31</title>
<path fill="none" stroke="black" d="M202.642,-1007.82C202.642,-987.794 202.642,-958.616 202.642,-936.126"/>
<polygon fill="black" stroke="black" points="206.142,-936.007 202.642,-926.007 199.142,-936.007 206.142,-936.007"/>
<text text-anchor="middle" x="206.642" y="-962.4" font-family="Times Roman,serif" font-size="14.00">ε</text>
</g>
<!-- 32 -->
<g id="node33" class="node"><title>32</title>
<ellipse fill="none" stroke="#000000" cx="200.642" cy="-805" rx="22.8079" ry="22.8079"/>
<text text-anchor="middle" x="200.642" y="-800.4" font-family="Times Roman,serif" font-size="14.00">32</text>
</g>
<!-- 31&#45;&gt;32 -->
<g id="edge88" class="edge"><title>31&#45;&gt;32</title>
<path fill="none" stroke="black" d="M191.754,-882.697C188.849,-876.263 186.111,-868.999 184.642,-862 182.791,-853.179 184.085,-843.714 186.587,-835.08"/>
<polygon fill="black" stroke="black" points="189.97,-836.01 189.963,-825.415 183.361,-833.702 189.97,-836.01"/>
<text text-anchor="middle" x="189.642" y="-849.4" font-family="Times Roman,serif" font-size="14.00">d</text>
</g>
<!-- 32&#45;&gt;4 -->
<g id="edge90" class="edge"><title>32&#45;&gt;4</title>
<path fill="none" stroke="black" d="M200.642,-781.707C200.642,-755.835 200.642,-714.065 200.642,-686.322"/>
<polygon fill="black" stroke="black" points="204.142,-686.086 200.642,-676.086 197.142,-686.086 204.142,-686.086"/>
<text text-anchor="middle" x="204.642" y="-751.4" font-family="Times Roman,serif" font-size="14.00">ε</text>
</g>
<!-- 32&#45;&gt;31 -->
<g id="edge92" class="edge"><title>32&#45;&gt;31</title>
<path fill="none" stroke="black" d="M201.112,-828.058C201.366,-840.479 201.683,-856.025 201.963,-869.733"/>
<polygon fill="black" stroke="black" points="198.465,-869.849 202.168,-879.775 205.463,-869.706 198.465,-869.849"/>
<text text-anchor="middle" x="205.642" y="-849.4" font-family="Times Roman,serif" font-size="14.00">ε</text>
</g>
</g>
</svg>
