<?xml version="1.0" encoding="UTF-8" standalone="no"?>
<!DOCTYPE svg PUBLIC "-//W3C//DTD SVG 1.1//EN"
 "http://www.w3.org/Graphics/SVG/1.1/DTD/svg11.dtd">
<!-- Generated by graphviz version 2.26.3 (20100126.1600)
 -->
<!-- Title: Finite_Automata_Graph Pages: 1 -->
<svg width="209pt" height="1178pt"
 viewBox="0.00 0.00 209.04 1178.00" xmlns="http://www.w3.org/2000/svg" xmlns:xlink="http://www.w3.org/1999/xlink">
<g id="graph1" class="graph" transform="scale(1 1) rotate(0) translate(4 1174)">
<title>Finite_Automata_Graph</title>
<polygon fill="white" stroke="white" points="-4,5 -4,-1174 206.044,-1174 206.044,5 -4,5"/>
<!-- 0 -->
<g id="node1" class="node"><title>0</title>
<ellipse fill="none" stroke="#000000" cx="168.044" cy="-1152" rx="18" ry="18"/>
<text text-anchor="middle" x="168.044" y="-1147.4" font-family="Times Roman,serif" font-size="14.00">0</text>
</g>
<!-- 1 -->
<g id="node2" class="node"><title>1</title>
<ellipse fill="none" stroke="#000000" cx="130.044" cy="-1064" rx="18" ry="18"/>
<text text-anchor="middle" x="130.044" y="-1059.4" font-family="Times Roman,serif" font-size="14.00">1</text>
</g>
<!-- 0&#45;&gt;1 -->
<g id="edge2" class="edge"><title>0&#45;&gt;1</title>
<path fill="none" stroke="black" d="M160.896,-1135.45C155.411,-1122.75 147.732,-1104.96 141.407,-1090.32"/>
<polygon fill="black" stroke="black" points="144.466,-1088.57 137.288,-1080.78 138.04,-1091.35 144.466,-1088.57"/>
<text text-anchor="middle" x="156.044" y="-1103.4" font-family="Times Roman,serif" font-size="14.00">ε</text>
</g>
<!-- 3 -->
<g id="node4" class="node"><title>3</title>
<ellipse fill="none" stroke="#000000" cx="168.044" cy="-124" rx="18" ry="18"/>
<text text-anchor="middle" x="168.044" y="-119.4" font-family="Times Roman,serif" font-size="14.00">3</text>
</g>
<!-- 0&#45;&gt;3 -->
<g id="edge4" class="edge"><title>0&#45;&gt;3</title>
<path fill="none" stroke="black" d="M175.68,-1135.53C183.032,-1118.13 193.044,-1089.73 193.044,-1064 193.044,-1064 193.044,-1064 193.044,-212 193.044,-190.492 186.048,-167.114 179.458,-149.863"/>
<polygon fill="black" stroke="black" points="182.66,-148.445 175.68,-140.474 176.166,-151.058 182.66,-148.445"/>
<text text-anchor="middle" x="197.044" y="-663.4" font-family="Times Roman,serif" font-size="14.00">ε</text>
</g>
<!-- 4 -->
<g id="node5" class="node"><title>4</title>
<ellipse fill="none" stroke="#000000" cx="71.0438" cy="-976" rx="18" ry="18"/>
<text text-anchor="middle" x="71.0438" y="-971.4" font-family="Times Roman,serif" font-size="14.00">4</text>
</g>
<!-- 1&#45;&gt;4 -->
<g id="edge6" class="edge"><title>1&#45;&gt;4</title>
<path fill="none" stroke="black" d="M116.263,-1051.94C109.296,-1045.35 101.065,-1036.77 95.0438,-1028 89.7028,-1020.22 85.0243,-1011.07 81.2507,-1002.63"/>
<polygon fill="black" stroke="black" points="84.3692,-1001.01 77.2512,-993.167 77.9218,-1003.74 84.3692,-1001.01"/>
<text text-anchor="middle" x="99.0438" y="-1015.4" font-family="Times Roman,serif" font-size="14.00">ε</text>
</g>
<!-- 6 -->
<g id="node7" class="node"><title>6</title>
<ellipse fill="none" stroke="#000000" cx="77.0438" cy="-800" rx="18" ry="18"/>
<text text-anchor="middle" x="77.0438" y="-795.4" font-family="Times Roman,serif" font-size="14.00">6</text>
</g>
<!-- 1&#45;&gt;6 -->
<g id="edge8" class="edge"><title>1&#45;&gt;6</title>
<path fill="none" stroke="black" d="M127.849,-1045.93C123.489,-1011.45 112.862,-934.019 98.0438,-870 94.7024,-855.565 90.0395,-839.733 85.9561,-826.782"/>
<polygon fill="black" stroke="black" points="89.2347,-825.544 82.8418,-817.096 82.5706,-827.687 89.2347,-825.544"/>
<text text-anchor="middle" x="115.044" y="-927.4" font-family="Times Roman,serif" font-size="14.00">ε</text>
</g>
<!-- 2 -->
<g id="node3" class="node"><title>2</title>
<ellipse fill="none" stroke="#000000" cx="131.044" cy="-212" rx="18" ry="18"/>
<text text-anchor="middle" x="131.044" y="-207.4" font-family="Times Roman,serif" font-size="14.00">2</text>
</g>
<!-- 2&#45;&gt;1 -->
<g id="edge10" class="edge"><title>2&#45;&gt;1</title>
<path fill="none" stroke="black" d="M138.115,-228.805C145.194,-247.177 155.044,-277.653 155.044,-305 155.044,-976 155.044,-976 155.044,-976 155.044,-997.508 148.048,-1020.89 141.458,-1038.14"/>
<polygon fill="black" stroke="black" points="138.166,-1036.94 137.68,-1047.53 144.66,-1039.56 138.166,-1036.94"/>
<text text-anchor="middle" x="159.044" y="-663.4" font-family="Times Roman,serif" font-size="14.00">ε</text>
</g>
<!-- 2&#45;&gt;3 -->
<g id="edge12" class="edge"><title>2&#45;&gt;3</title>
<path fill="none" stroke="black" d="M138.178,-195.033C143.535,-182.291 150.969,-164.61 157.08,-150.076"/>
<polygon fill="black" stroke="black" points="160.408,-151.192 161.057,-140.617 153.955,-148.479 160.408,-151.192"/>
<text text-anchor="middle" x="156.044" y="-163.4" font-family="Times Roman,serif" font-size="14.00">ε</text>
</g>
<!-- 14 -->
<g id="node15" class="node"><title>14</title>
<ellipse fill="none" stroke="#000000" cx="168.044" cy="-27" rx="22.8079" ry="22.8079"/>
<ellipse fill="none" stroke="#000000" cx="168.044" cy="-27" rx="26.8079" ry="26.8079"/>
<text text-anchor="middle" x="168.044" y="-22.4" font-family="Times Roman,serif" font-size="14.00">14</text>
</g>
<!-- 3&#45;&gt;14 -->
<g id="edge40" class="edge"><title>3&#45;&gt;14</title>
<path fill="none" stroke="black" d="M168.044,-105.755C168.044,-94.0965 168.044,-78.5544 168.044,-64.3586"/>
<polygon fill="black" stroke="black" points="171.544,-64.3346 168.044,-54.3346 164.544,-64.3346 171.544,-64.3346"/>
<text text-anchor="middle" x="175.544" y="-75.4" font-family="Times Roman,serif" font-size="14.00">\n</text>
</g>
<!-- 5 -->
<g id="node6" class="node"><title>5</title>
<ellipse fill="none" stroke="#000000" cx="71.0438" cy="-888" rx="18" ry="18"/>
<text text-anchor="middle" x="71.0438" y="-883.4" font-family="Times Roman,serif" font-size="14.00">5</text>
</g>
<!-- 4&#45;&gt;5 -->
<g id="edge14" class="edge"><title>4&#45;&gt;5</title>
<path fill="none" stroke="black" d="M53.254,-972.073C36.9861,-967.436 13.8612,-957.967 3.04376,-940 -9.09694,-919.835 19.8098,-904.719 43.6224,-896.121"/>
<polygon fill="black" stroke="black" points="45.0181,-899.345 53.3814,-892.84 42.7874,-892.71 45.0181,-899.345"/>
<text text-anchor="middle" x="30.0438" y="-927.4" font-family="Times Roman,serif" font-size="14.00">/[CHO]/</text>
</g>
<!-- 5&#45;&gt;4 -->
<g id="edge16" class="edge"><title>5&#45;&gt;4</title>
<path fill="none" stroke="black" d="M71.0438,-906.21C71.0438,-918.122 71.0438,-933.932 71.0438,-947.492"/>
<polygon fill="black" stroke="black" points="67.5439,-947.766 71.0438,-957.766 74.5439,-947.766 67.5439,-947.766"/>
<text text-anchor="middle" x="75.0438" y="-927.4" font-family="Times Roman,serif" font-size="14.00">ε</text>
</g>
<!-- 5&#45;&gt;6 -->
<g id="edge18" class="edge"><title>5&#45;&gt;6</title>
<path fill="none" stroke="black" d="M72.287,-869.766C73.0995,-857.849 74.1775,-842.038 75.1018,-828.482"/>
<polygon fill="black" stroke="black" points="78.6137,-828.425 75.8021,-818.21 71.6299,-827.949 78.6137,-828.425"/>
<text text-anchor="middle" x="78.0438" y="-839.4" font-family="Times Roman,serif" font-size="14.00">ε</text>
</g>
<!-- 7 -->
<g id="node8" class="node"><title>7</title>
<ellipse fill="none" stroke="#000000" cx="25.0438" cy="-712" rx="18" ry="18"/>
<text text-anchor="middle" x="25.0438" y="-707.4" font-family="Times Roman,serif" font-size="14.00">7</text>
</g>
<!-- 6&#45;&gt;7 -->
<g id="edge20" class="edge"><title>6&#45;&gt;7</title>
<path fill="none" stroke="black" d="M67.7472,-784.267C59.909,-771.003 48.5585,-751.794 39.5295,-736.514"/>
<polygon fill="black" stroke="black" points="42.3604,-734.425 34.2598,-727.596 36.3339,-737.986 42.3604,-734.425"/>
<text text-anchor="middle" x="60.0438" y="-751.4" font-family="Times Roman,serif" font-size="14.00">ε</text>
</g>
<!-- 9 -->
<g id="node10" class="node"><title>9</title>
<ellipse fill="none" stroke="#000000" cx="86.0438" cy="-712" rx="18" ry="18"/>
<text text-anchor="middle" x="86.0438" y="-707.4" font-family="Times Roman,serif" font-size="14.00">9</text>
</g>
<!-- 6&#45;&gt;9 -->
<g id="edge22" class="edge"><title>6&#45;&gt;9</title>
<path fill="none" stroke="black" d="M78.9086,-781.766C80.1355,-769.77 81.766,-753.827 83.1586,-740.211"/>
<polygon fill="black" stroke="black" points="86.6765,-740.213 84.2121,-729.909 79.7128,-739.501 86.6765,-740.213"/>
<text text-anchor="middle" x="86.0438" y="-751.4" font-family="Times Roman,serif" font-size="14.00">ε</text>
</g>
<!-- 8 -->
<g id="node9" class="node"><title>8</title>
<ellipse fill="none" stroke="#000000" cx="25.0438" cy="-560" rx="18" ry="18"/>
<text text-anchor="middle" x="25.0438" y="-555.4" font-family="Times Roman,serif" font-size="14.00">8</text>
</g>
<!-- 7&#45;&gt;8 -->
<g id="edge24" class="edge"><title>7&#45;&gt;8</title>
<path fill="none" stroke="black" d="M25.0438,-693.967C25.0438,-667.798 25.0438,-619.056 25.0438,-588.137"/>
<polygon fill="black" stroke="black" points="28.5439,-588.01 25.0438,-578.01 21.5439,-588.01 28.5439,-588.01"/>
<text text-anchor="middle" x="47.5438" y="-663.4" font-family="Times Roman,serif" font-size="14.00">/[2&#45;9]/</text>
</g>
<!-- 8&#45;&gt;2 -->
<g id="edge26" class="edge"><title>8&#45;&gt;2</title>
<path fill="none" stroke="black" d="M25.5903,-541.657C26.1824,-520.172 27.0438,-483.505 27.0438,-452 27.0438,-452 27.0438,-452 27.0438,-305 27.0438,-283.616 76.5191,-247.488 107.221,-227.127"/>
<polygon fill="black" stroke="black" points="109.241,-229.988 115.698,-221.588 105.412,-224.128 109.241,-229.988"/>
<text text-anchor="middle" x="31.0438" y="-398.4" font-family="Times Roman,serif" font-size="14.00">ε</text>
</g>
<!-- 11 -->
<g id="node12" class="node"><title>11</title>
<ellipse fill="none" stroke="#000000" cx="87.0438" cy="-619" rx="22.8079" ry="22.8079"/>
<text text-anchor="middle" x="87.0438" y="-614.4" font-family="Times Roman,serif" font-size="14.00">11</text>
</g>
<!-- 9&#45;&gt;11 -->
<g id="edge28" class="edge"><title>9&#45;&gt;11</title>
<path fill="none" stroke="black" d="M86.2413,-693.626C86.3674,-681.899 86.5346,-666.35 86.6838,-652.48"/>
<polygon fill="black" stroke="black" points="90.1855,-652.331 86.7933,-642.293 83.1859,-652.255 90.1855,-652.331"/>
<text text-anchor="middle" x="108.544" y="-663.4" font-family="Times Roman,serif" font-size="14.00">/[1&#45;9]/</text>
</g>
<!-- 10 -->
<g id="node11" class="node"><title>10</title>
<ellipse fill="none" stroke="#000000" cx="104.044" cy="-305" rx="22.8079" ry="22.8079"/>
<text text-anchor="middle" x="104.044" y="-300.4" font-family="Times Roman,serif" font-size="14.00">10</text>
</g>
<!-- 10&#45;&gt;2 -->
<g id="edge30" class="edge"><title>10&#45;&gt;2</title>
<path fill="none" stroke="black" d="M110.58,-282.487C114.36,-269.465 119.145,-252.985 123.137,-239.236"/>
<polygon fill="black" stroke="black" points="126.578,-239.936 126.005,-229.356 119.855,-237.984 126.578,-239.936"/>
<text text-anchor="middle" x="123.044" y="-251.4" font-family="Times Roman,serif" font-size="14.00">ε</text>
</g>
<!-- 12 -->
<g id="node13" class="node"><title>12</title>
<ellipse fill="none" stroke="#000000" cx="87.0438" cy="-501" rx="22.8079" ry="22.8079"/>
<text text-anchor="middle" x="87.0438" y="-496.4" font-family="Times Roman,serif" font-size="14.00">12</text>
</g>
<!-- 11&#45;&gt;12 -->
<g id="edge32" class="edge"><title>11&#45;&gt;12</title>
<path fill="none" stroke="black" d="M87.0438,-595.968C87.0438,-578.458 87.0438,-554.112 87.0438,-534.454"/>
<polygon fill="black" stroke="black" points="90.5439,-534.377 87.0438,-524.377 83.5439,-534.377 90.5439,-534.377"/>
<text text-anchor="middle" x="91.0438" y="-555.4" font-family="Times Roman,serif" font-size="14.00">ε</text>
</g>
<!-- 13 -->
<g id="node14" class="node"><title>13</title>
<ellipse fill="none" stroke="#000000" cx="104.044" cy="-403" rx="22.8079" ry="22.8079"/>
<text text-anchor="middle" x="104.044" y="-398.4" font-family="Times Roman,serif" font-size="14.00">13</text>
</g>
<!-- 12&#45;&gt;13 -->
<g id="edge34" class="edge"><title>12&#45;&gt;13</title>
<path fill="none" stroke="black" d="M72.3452,-483.018C65.0147,-471.793 58.7338,-457.047 64.0438,-444 67.1014,-436.487 72.271,-429.6 77.8964,-423.702"/>
<polygon fill="black" stroke="black" points="80.3234,-426.224 85.1411,-416.788 75.4905,-421.16 80.3234,-426.224"/>
<text text-anchor="middle" x="86.5438" y="-447.4" font-family="Times Roman,serif" font-size="14.00">/[0&#45;9]/</text>
</g>
<!-- 13&#45;&gt;10 -->
<g id="edge36" class="edge"><title>13&#45;&gt;10</title>
<path fill="none" stroke="black" d="M104.044,-379.775C104.044,-367.327 104.044,-351.775 104.044,-338.083"/>
<polygon fill="black" stroke="black" points="107.544,-338.058 104.044,-328.058 100.544,-338.058 107.544,-338.058"/>
<text text-anchor="middle" x="108.044" y="-349.4" font-family="Times Roman,serif" font-size="14.00">ε</text>
</g>
<!-- 13&#45;&gt;12 -->
<g id="edge38" class="edge"><title>13&#45;&gt;12</title>
<path fill="none" stroke="black" d="M109.415,-425.469C111.089,-436.073 111.853,-448.824 109.044,-460 107.98,-464.231 106.387,-468.501 104.534,-472.605"/>
<polygon fill="black" stroke="black" points="101.278,-471.286 99.8676,-481.786 107.519,-474.458 101.278,-471.286"/>
<text text-anchor="middle" x="114.044" y="-447.4" font-family="Times Roman,serif" font-size="14.00">ε</text>
</g>
</g>
</svg>
